{
  "accessors": [
    {
      "bufferView": 2,
      "componentType": 5126,
      "count": 10418,
      "max": [
        2205.63623046875,
        1271.954833984375,
        410.35421752929688
      ],
      "min": [
        -1827.41015625,
        -293.48672485351562,
        -410.37857055664062
      ],
      "type": "VEC3"
    },
    {
      "bufferView": 2,
      "byteOffset": 125016,
      "componentType": 5126,
      "count": 10418,
      "max": [
        1,
        1,
        1
      ],
      "min": [
        -1,
        -1,
        -1
      ],
      "type": "VEC3"
    },
    {
      "bufferView": 3,
      "componentType": 5126,
      "count": 10418,
      "max": [
        1,
        1,
        1,
        1
      ],
      "min": [
        -1,
        -1,
        -1,
        -1
      ],
      "type": "VEC4"
    },
    {
      "bufferView": 1,
      "componentType": 5126,
      "count": 10418,
      "max": [
        0.98756206035614014,
        0.99099117517471313
      ],
      "min": [
        0.0069378726184368134,
        0.013017347082495689
      ],
      "type": "VEC2"
    },
    {
      "bufferView": 0,
      "componentType": 5125,
      "count": 25602,
      "max": [
        10417
      ],
      "min": [
        0
      ],
      "type": "SCALAR"
    }
  ],
  "asset": {
    "extras": {
      "author": "ENEA LE FONS (https://sketchfab.com/enealefons)",
      "license": "CC-BY-4.0 (http://creativecommons.org/licenses/by/4.0/)",
      "source": "https://sketchfab.com/3d-models/yacht-rmx-1d84df1e2e3e4698b793156542bba8a1",
      "title": "Yacht RMX"
    },
    "generator": "Sketchfab-6.3.0",
    "version": "2.0"
  },
  "bufferViews": [
    {
      "buffer": 0,
      "byteLength": 102408,
      "byteOffset": 0,
      "name": "floatBufferViews",
      "target": 34963
    },
    {
      "buffer": 0,
      "byteLength": 83344,
      "byteOffset": 102408,
      "byteStride": 8,
      "name": "floatBufferViews",
      "target": 34962
    },
    {
      "buffer": 0,
      "byteLength": 250032,
      "byteOffset": 185752,
      "byteStride": 12,
      "name": "floatBufferViews",
      "target": 34962
    },
    {
      "buffer": 0,
      "byteLength": 166688,
      "byteOffset": 435784,
      "byteStride": 16,
      "name": "floatBufferViews",
      "target": 34962
    }
  ],
  "buffers": [
    {
      "byteLength": 602472,
      "uri": "scene.bin"
    }
  ],
  "images": [
    {
      "uri": "textures/01_-_Default_baseColor.png"
    },
    {
      "uri": "textures/01_-_Default_emissive.jpeg"
    },
    {
      "uri": "textures/01_-_Default_normal.png"
    }
  ],
  "materials": [
    {
      "alphaMode": "BLEND",
      "doubleSided": true,
      "emissiveFactor": [
        1,
        1,
        1
      ],
      "emissiveTexture": {
        "index": 1,
        "texCoord": 0
      },
      "name": "01_-_Default",
      "normalTexture": {
        "index": 2,
        "scale": 0.68045455470229643,
        "texCoord": 0
      },
      "pbrMetallicRoughness": {
        "baseColorFactor": [
          1,
          1,
          1,
          1
        ],
        "baseColorTexture": {
          "index": 0,
          "texCoord": 0
        },
        "metallicFactor": 0.40166667591441763,
        "roughnessFactor": 0
      }
    }
  ],
  "meshes": [
    {
      "name": "korpus1_01 - Default_0",
      "primitives": [
        {
          "attributes": {
            "NORMAL": 1,
            "POSITION": 0,
            "TANGENT": 2,
            "TEXCOORD_0": 3
          },
          "indices": 4,
          "material": 0,
          "mode": 4
        }
      ]
    }
  ],
  "nodes": [
    {
      "children": [
        1
      ],
      "name": "RootNode (gltf orientation matrix)",
      "rotation": [
        -0.70710678118654746,
        -0,
        -0,
        0.70710678118654757
      ]
    },
    {
      "children": [
        2
      ],
      "matrix": [
        2.2204460492503131e-16,
        -1,
        -1.6081226229577292e-16,
        0,
        -1,
        -2.2204460492503131e-16,
        -2.832769343193999e-16,
        0,
        2.832769343193999e-16,
        1.6081226229577292e-16,
        -1,
        0,
        1.2468231916427612,
        1.2468216419219971,
        -11.691888809204102,
        1
      ],
      "name": "RootNode (model correction matrix)"
    },
    {
      "children": [
        3
      ],
      "matrix": [
        1,
        0,
        0,
        0,
        0,
        -1,
        0,
        0,
        0,
        0,
        -1,
        0,
        0,
        0,
        0,
        1
      ],
      "name": "Yacht.fbx"
    },
    {
      "children": [
        4
      ],
      "name": "RootNode"
    },
    {
      "children": [
        5
      ],
      "matrix": [
        -2.6822089549405348e-09,
        -0.009999999776482112,
        -1.4901160871882979e-09,
        0,
        -1.7881397040841928e-09,
        -1.490115608682185e-09,
        0.0099999997764823115,
        0,
        -0.0099999997764820634,
        2.682209220283832e-09,
        -1.7881393055141359e-09,
        0,
        0,
        0.64451348781585693,
        0.95361357927322388,
        1
      ],
      "name": "korpus1"
    },
    {
      "mesh": 0,
      "name": "korpus1_01 - Default_0"
    }
  ],
  "samplers": [
    {
      "magFilter": 9729,
      "minFilter": 9987,
      "wrapS": 10497,
      "wrapT": 10497
    }
  ],
  "scene": 0,
  "scenes": [
    {
      "name": "OSG_Scene",
      "nodes": [
        0
      ]
    }
  ],
  "textures": [
    {
      "sampler": 0,
      "source": 0
    },
    {
      "sampler": 0,
      "source": 1
    },
    {
      "sampler": 0,
      "source": 2
    }
  ]
}

